<svg xmlns="http://www.w3.org/2000/svg" width="24" height="24" viewBox="0 0 24 24"><defs><style>.a{fill:none;}.b{fill:#ffe356;}</style></defs><rect class="a" width="24" height="24"/><path class="b" d="M314.082,1216.111a1.242,1.242,0,0,0-1-.845l-5.4-.784-2.419-4.9a1.242,1.242,0,0,0-1.113-.692h0a1.243,1.243,0,0,0-1.114.693l-2.415,4.9-5.4.787a1.243,1.243,0,0,0-.688,2.12l3.912,3.811-.922,5.383a1.241,1.241,0,0,0,1.8,1.309l4.834-2.542,4.835,2.54a1.243,1.243,0,0,0,1.8-1.31l-.925-5.383,3.91-3.813A1.245,1.245,0,0,0,314.082,1216.111Z" transform="translate(-292.143 -1206.393)"/></svg>