<svg xmlns="http://www.w3.org/2000/svg" width="20" height="20" viewBox="0 0 20 20"><defs><style>.a{fill:none;}.b{fill:#4f5783;}</style></defs><rect class="a" width="20" height="20"/><g transform="translate(4.167 4.167)"><path class="b" d="M.824,0a.826.826,0,0,1,.825.825l.009,13.192a.825.825,0,1,1-1.649,0L0,.824A.823.823,0,0,1,.824,0Z" transform="translate(0 1.172) rotate(-45)"/><path class="b" d="M.834,0a.823.823,0,0,1,.824.824L1.649,14.016a.825.825,0,1,1-1.649,0L.009.825A.826.826,0,0,1,.834,0Z" transform="translate(10.494 0) rotate(45)"/></g></svg>