
<svg xmlns="http://www.w3.org/2000/svg" width="32" height="32" viewBox="0 0 32 32"><defs><style>.a{fill:#f5f6ff;stroke:#d3d5e0;stroke-width:2px;}.b{fill:#d3d5e0;}.c{fill:none;}.d{stroke:none;}</style></defs><g class="a"><rect class="d" width="32" height="32" rx="16"/><rect class="c" x="1" y="1" width="30" height="30" rx="15"/></g><g transform="translate(4.889 9.556)"><g transform="translate(0 1.571)"><path class="b" d="M0,6.5V4.874c.857,0,1.163-.32,1.163-1.142V2.147A2.053,2.053,0,0,1,3.505,0h.98V1.645H3.934a.8.8,0,0,0-.9.9V4.052A1.443,1.443,0,0,1,1.73,5.7a1.434,1.434,0,0,1,1.3,1.645V8.85a.8.8,0,0,0,.9.9h.551v1.645h-.98A2.053,2.053,0,0,1,1.163,9.246V7.661C1.163,6.839.857,6.5,0,6.5Z"/><path class="c" d="M0,6.5V4.874c.857,0,1.163-.32,1.163-1.142V2.147A2.053,2.053,0,0,1,3.505,0h.98V1.645H3.934a.8.8,0,0,0-.9.9V4.052A1.443,1.443,0,0,1,1.73,5.7a1.434,1.434,0,0,1,1.3,1.645V8.85a.8.8,0,0,0,.9.9h.551v1.645h-.98A2.053,2.053,0,0,1,1.163,9.246V7.661C1.163,6.839.857,6.5,0,6.5Z"/></g><g transform="translate(17.737 1.571)"><path class="b" d="M0,6.5V4.874c.857,0,1.163-.32,1.163-1.142V2.147A2.053,2.053,0,0,1,3.505,0h.98V1.645H3.934a.8.8,0,0,0-.9.9V4.052A1.443,1.443,0,0,1,1.73,5.7a1.434,1.434,0,0,1,1.3,1.645V8.85a.8.8,0,0,0,.9.9h.551v1.645h-.98A2.053,2.053,0,0,1,1.163,9.246V7.661C1.163,6.839.857,6.5,0,6.5Z" transform="translate(4.485 11.393) rotate(180)"/><path class="c" d="M0,6.5V4.874c.857,0,1.163-.32,1.163-1.142V2.147A2.053,2.053,0,0,1,3.505,0h.98V1.645H3.934a.8.8,0,0,0-.9.9V4.052A1.443,1.443,0,0,1,1.73,5.7a1.434,1.434,0,0,1,1.3,1.645V8.85a.8.8,0,0,0,.9.9h.551v1.645h-.98A2.053,2.053,0,0,1,1.163,9.246V7.661C1.163,6.839.857,6.5,0,6.5Z" transform="translate(4.485 11.393) rotate(180)"/></g><g transform="translate(5.497 5.928)"><circle class="b" cx="1.127" cy="1.127" r="1.127"/><circle class="c" cx="1.127" cy="1.127" r="1.127"/></g><g transform="translate(14.493 5.928)"><circle class="b" cx="1.127" cy="1.127" r="1.127"/><circle class="c" cx="1.127" cy="1.127" r="1.127"/></g><g transform="translate(8.696 1.571)"><rect class="b" width="4.805" height="1.65"/><rect class="c" width="4.805" height="1.65"/></g><g transform="translate(8.696 11.31)"><rect class="b" width="4.805" height="1.65"/><rect class="c" width="4.805" height="1.65"/></g><g transform="translate(10.271 0)"><rect class="b" width="4.791" height="1.655" transform="translate(1.655) rotate(90)"/><rect class="c" width="4.791" height="1.655" transform="translate(1.655) rotate(90)"/></g></g></svg>