<svg xmlns="http://www.w3.org/2000/svg" width="24" height="24" viewBox="0 0 24 24"><defs><style>.a{isolation:isolate;}.b{fill:none;}.c{fill:#4f5783;}</style></defs><g class="a"><rect class="b" width="24" height="24"/><g transform="translate(19 8) rotate(90)"><g transform="translate(0)"><path class="c" d="M7,8a1,1,0,0,1-.707-.293l-6-6A1,1,0,1,1,1.706.293l6,6A1,1,0,0,1,7,8Z"/></g><g transform="translate(0 6)"><path class="c" d="M0,7a1,1,0,0,1,.293-.707l6-6A1,1,0,0,1,7.707,1.707l-6,6A1,1,0,0,1,0,7Z"/></g></g></g></svg>