<svg xmlns="http://www.w3.org/2000/svg" width="24" height="24" viewBox="0 0 24 24"><defs><style>.a,.b{fill:none;}.b{stroke:#4f5783;stroke-linecap:round;stroke-linejoin:round;stroke-width:2px;}</style></defs><rect class="a" width="24" height="24"/><g transform="translate(4 1.178)"><path class="b" d="M5.464,18H5a3.278,3.278,0,0,0,3.5,3A3.278,3.278,0,0,0,12,18H5.464Z" transform="translate(-0.5 -1.178)"/><g transform="translate(0 1.822)"><path class="b" d="M15.523,14.294a5.371,5.371,0,0,1-1.12-3.169V8.536a6.547,6.547,0,0,0-4.8-6.33L9.335,2.15a5.726,5.726,0,0,0-.907-.131,6.4,6.4,0,0,0-1.76.131c-.089.019-.178.028-.267.047A6.338,6.338,0,0,0,1.6,8.32v2.813A5.371,5.371,0,0,1,.48,14.3a1.535,1.535,0,0,0-.453,1.388A1.646,1.646,0,0,0,1.689,17H14.314a1.646,1.646,0,0,0,1.663-1.313A1.553,1.553,0,0,0,15.523,14.294Z" transform="translate(-0.002 -2.004)"/></g></g></svg>