<svg xmlns="http://www.w3.org/2000/svg" width="24" height="24" viewBox="0 0 24 24"><defs><style>.a,.b{fill:none;}.b{stroke:#4f5783;stroke-width:2px;}</style></defs><rect class="a" width="24" height="24"/><path class="b" d="M2,0H4.714a2,2,0,0,1,2,2V5.476a0,0,0,0,1,0,0H0a0,0,0,0,1,0,0V2A2,2,0,0,1,2,0Z" transform="translate(16.252 3) rotate(45)"/><path class="b" d="M1010.229,1071.9a.56.56,0,0,0,0-.791l-3.957-3.957a.56.56,0,0,0-.791,0l-8.254,8.254a1.123,1.123,0,0,0-.317.633l-.527,3.693a1.119,1.119,0,0,0,1.266,1.266l3.693-.527a1.124,1.124,0,0,0,.633-.317Z" transform="translate(-993.372 -1060.014)"/></svg>