<svg xmlns="http://www.w3.org/2000/svg" width="24" height="24" viewBox="0 0 24 24"><defs><style>.a,.b{fill:none;}.a{stroke:#4f5783;stroke-linecap:round;stroke-linejoin:round;stroke-width:2px;}</style></defs><path class="a" d="M-4134-1369a2,2,0,0,1-2-2v-.1a6,6,0,0,1,5.382-5.968,5.612,5.612,0,0,1-2.006-4.307A5.624,5.624,0,0,1-4127-1387a5.625,5.625,0,0,1,5.625,5.625,5.613,5.613,0,0,1-2.007,4.307A6,6,0,0,1-4118-1371.1v.1a2,2,0,0,1-2,2Z" transform="translate(4139 1390)"/><rect class="b" width="24" height="24"/></svg>