<svg xmlns="http://www.w3.org/2000/svg" width="24" height="24" viewBox="0 0 24 24"><defs><style>.a,.b,.c{fill:none;}.a,.c{stroke:#394dd1;stroke-linecap:round;stroke-width:2px;}.a{stroke-linejoin:round;}</style></defs><path class="a" d="M525-960a1,1,0,0,1-1-1,6,6,0,0,1,3.627-5.513A6.972,6.972,0,0,1,526-971a7,7,0,0,1,7-7,7,7,0,0,1,7,7,6.973,6.973,0,0,1-1.627,4.487A6,6,0,0,1,542-961a1,1,0,0,1-1,1Z" transform="translate(-521 981)"/><rect class="b" width="24" height="24"/><g transform="translate(-241.5 -120.5)"><line class="c" y2="6" transform="translate(253.5 127.5)"/><line class="c" x1="6" transform="translate(250.5 130.5)"/></g></svg>