<svg xmlns="http://www.w3.org/2000/svg" width="32" height="22" viewBox="0 0 32 22"><defs><style>.a{fill:#394dd1;}.b{fill:none;}</style></defs><g transform="translate(0.8 0.846)"><path class="a" d="M27.313,0H25.254V2.133H23.19V4.267h2.064V6.405h2.059V4.267h2.064V2.133H27.313Z" transform="translate(-10.819)"/><path class="a" d="M25.254,32.02H23.19v2.133h6.187V32.02H25.254Z" transform="translate(-10.819 -14.939)"/><ellipse class="a" cx="1.547" cy="1.6" rx="1.547" ry="1.6" transform="translate(7.217 9.074)"/><ellipse class="a" cx="1.547" cy="1.6" rx="1.547" ry="1.6" transform="translate(20.617 9.074)"/><path class="a" d="M4.123,18.413V14.679a2.1,2.1,0,0,0-2.064-2.134,2.1,2.1,0,0,0,2.064-2.134V6.667a.525.525,0,0,1,.517-.533H7.216V4H4.123A2.1,2.1,0,0,0,2.064,6.134v3.2A2.1,2.1,0,0,1,0,11.468V13.6a2.1,2.1,0,0,1,2.064,2.134v3.2A2.1,2.1,0,0,0,4.128,21.07H7.221V18.936H4.64A.509.509,0,0,1,4.123,18.413Z" transform="translate(0 -1.867)"/><path class="a" d="M49.607,9.34V6.134A2.1,2.1,0,0,0,47.543,4H44.45V6.134h2.576a.528.528,0,0,1,.517.533V10.4a2.1,2.1,0,0,0,2.064,2.134,2.1,2.1,0,0,0-2.064,2.134V18.4a.525.525,0,0,1-.517.533H44.45V21.07h3.093a2.1,2.1,0,0,0,2.064-2.134v-3.2A2.1,2.1,0,0,1,51.671,13.6V11.468A2.091,2.091,0,0,1,49.607,9.34Z" transform="translate(-20.738 -1.867)"/></g><rect class="b" width="32" height="20.8"/></svg>