<svg xmlns="http://www.w3.org/2000/svg" xmlns:xlink="http://www.w3.org/1999/xlink" width="272" height="272" viewBox="0 0 272 272"><defs><linearGradient id="a" x1="1" x2="0" y2="1" gradientUnits="objectBoundingBox"><stop offset="0" stop-color="#e1677d" stop-opacity="0.502"/><stop offset="1" stop-color="#e1677d" stop-opacity="0.102"/></linearGradient><filter id="b" x="0" y="0" width="272" height="272" filterUnits="userSpaceOnUse"><feOffset input="SourceAlpha"/><feGaussianBlur stdDeviation="12" result="c"/><feFlood flood-color="#e1677d" flood-opacity="0.8"/><feComposite operator="in" in2="c"/><feComposite in="SourceGraphic"/></filter><radialGradient id="d" cx="0.577" cy="0.564" r="0.5" gradientTransform="translate(1.155 1.128) rotate(180)" gradientUnits="objectBoundingBox"><stop offset="0" stop-color="#e1677d" stop-opacity="0.8"/><stop offset="1" stop-color="#e1677d" stop-opacity="0"/></radialGradient><filter id="e" x="0" y="0" width="272" height="272" filterUnits="userSpaceOnUse"><feOffset input="SourceAlpha"/><feGaussianBlur stdDeviation="12" result="f"/><feFlood flood-color="#e1677d" flood-opacity="0.8"/><feComposite operator="in" in2="f"/><feComposite in="SourceGraphic"/></filter></defs><g transform="translate(550 21909)"><g transform="translate(-188 -127)"><rect width="200" height="200" rx="100" transform="translate(-126 -21546) rotate(-180)" fill="#fff"/><g transform="matrix(1, 0, 0, 1, -362, -21782)" filter="url(#b)"><rect width="200" height="200" rx="100" transform="translate(236 36) rotate(90)" fill="url(#a)"/></g><g transform="matrix(1, 0, 0, 1, -362, -21782)" filter="url(#e)"><rect width="200" height="200" rx="100" transform="translate(36 36)" fill="url(#d)"/></g></g><g transform="translate(-471 -21811)"><g transform="translate(0 5.186)"><path d="M37.012,0h-6.9V7.152H23.19V14.3h6.92v7.17h6.9V14.3h6.92V7.152h-6.92Z" transform="translate(20.81)" fill="#fff"/><path d="M30.11,32.02H23.19v7.152H43.932V32.02H30.11Z" transform="translate(20.81 25.246)" fill="#fff"/><g transform="translate(-3.09 -4)"><ellipse cx="5.185" cy="5.364" rx="5.185" ry="5.364" transform="translate(30.09 36.314)" fill="#fff" stroke="#fff" stroke-width="2"/><ellipse cx="5.185" cy="5.364" rx="5.185" ry="5.364" transform="translate(75.015 36.314)" fill="#fff" stroke="#fff" stroke-width="2"/></g><path d="M13.822,52.323V39.8A7.036,7.036,0,0,0,6.9,32.651a7.047,7.047,0,0,0,6.92-7.154V12.942a1.76,1.76,0,0,1,1.734-1.788h8.636V4H13.822a7.032,7.032,0,0,0-6.9,7.154V21.884A7.036,7.036,0,0,1,0,29.038v7.154a7.047,7.047,0,0,1,6.92,7.154V54.076a7.036,7.036,0,0,0,6.92,7.154H24.211V54.076H15.556A1.707,1.707,0,0,1,13.822,52.323Z" transform="translate(0 3.152)" fill="#fff"/><path d="M61.741,21.9V11.154A7.036,7.036,0,0,0,54.821,4H44.45v7.154h8.636a1.771,1.771,0,0,1,1.734,1.788V25.461a7.036,7.036,0,0,0,6.92,7.154,7.047,7.047,0,0,0-6.92,7.154V52.288a1.76,1.76,0,0,1-1.734,1.788H44.45V61.23H54.821a7.047,7.047,0,0,0,6.92-7.154V43.346a7.036,7.036,0,0,1,6.92-7.154V29.038A7.009,7.009,0,0,1,61.741,21.9Z" transform="translate(40.55 3.152)" fill="#fff"/></g><rect width="113.137" height="75.425" transform="translate(1.179)" fill="none"/></g></g></svg>