<svg xmlns="http://www.w3.org/2000/svg" width="24" height="24" viewBox="0 0 24 24"><defs><style>.a{isolation:isolate;}.b{fill:none;}.c{fill:#4f5783;}</style></defs><g class="a"><rect class="b" width="24" height="24"/><g transform="translate(-985.685 -1017.556)"><path class="c" d="M995.685,1035.556a1,1,0,0,1-.707-.293l-5-5a1,1,0,0,1,1.414-1.414l5,5a1,1,0,0,1-.707,1.707Z"/><path class="c" d="M995.685,1035.556a1,1,0,0,1-.707-1.707l9-9a1,1,0,1,1,1.414,1.414l-9,9A1,1,0,0,1,995.685,1035.556Z"/></g></g></svg>