<svg xmlns="http://www.w3.org/2000/svg" xmlns:xlink="http://www.w3.org/1999/xlink" width="203" height="71.5" viewBox="0 0 203 71.5"><defs><style>.a,.af,.b,.g{fill:#fff;}.a{stroke:#283997;}.b{stroke:#df7a6e;}.ar,.c,.d,.f,.s,.t{fill:none;}.ar,.c{stroke:#7885e0;}.c,.d{stroke-width:2px;}.d,.t{stroke:#f36d70;}.e{fill:#394dd1;}.g{font-size:26px;font-family:Roboto-Regular, Roboto;}.h{clip-path:url(#a);}.i{fill:#ffe0dc;}.j{fill:#ebeef2;}.ac,.k{fill:#d3d8df;}.l{fill:#7fb7ea;}.m,.w{fill:#e39f6e;}.n{fill:#627687;}.o{fill:#455e6d;}.aa,.p{fill:#f8c298;}.ad,.q{fill:#e64c3c;opacity:0.5;}.ab,.r{fill:#293235;}.s{stroke:#455e6d;stroke-linecap:round;stroke-linejoin:round;}.ar,.t{stroke-width:3px;}.u{clip-path:url(#b);}.v{fill:#ebedff;}.aa,.ab,.ac,.ad,.ae,.af,.ag,.ah,.ai,.aj,.ak,.al,.am,.an,.ao,.ap,.aq,.w,.x,.y,.z{stroke:rgba(0,0,0,0);}.x{fill:#123e5b;}.y{fill:#698796;}.z{fill:#092e42;}.ae{fill:#aeefff;}.ag{fill:#3d3847;}.ah{fill:#646375;}.ai{fill:#5c546a;}.aj{fill:#5d647f;}.ak{fill:#68748d;}.al{fill:#ffe671;}.am{fill:#ffcd00;}.an{fill:#283997;}.ao{fill:#6778c1;}.ap{fill:#566aa8;}.aq{fill:#9cabdb;}</style><clipPath id="a"><circle class="a" cx="20" cy="20" r="20"/></clipPath><clipPath id="b"><circle class="b" cx="20" cy="20" r="20"/></clipPath></defs><g transform="translate(-858.5 -283)"><line class="c" x2="80" transform="translate(980 333.5)"/><line class="d" x2="80" transform="translate(860 333.5)"/><g transform="translate(939 283)"><g transform="translate(1.069 1.139)"><path class="e" d="M28.488,0H25.843V2.742H23.19V5.483h2.653V8.232h2.646V5.483h2.653V2.742H28.488Z" transform="translate(-7.292)"/><path class="e" d="M25.843,32.02H23.19v2.742h7.951V32.02h-5.3Z" transform="translate(-7.292 -10.069)"/><ellipse class="e" cx="1.988" cy="2.056" rx="1.988" ry="2.056" transform="translate(9.275 11.661)"/><ellipse class="e" cx="1.988" cy="2.056" rx="1.988" ry="2.056" transform="translate(26.496 11.661)"/><path class="e" d="M5.3,22.524v-4.8a2.7,2.7,0,0,0-2.653-2.742A2.7,2.7,0,0,0,5.3,12.24V7.428a.675.675,0,0,1,.665-.686H9.274V4H5.3A2.7,2.7,0,0,0,2.653,6.742v4.113A2.7,2.7,0,0,1,0,13.6V16.34a2.7,2.7,0,0,1,2.653,2.742V23.2a2.7,2.7,0,0,0,2.653,2.742H9.281V23.2H5.963A.654.654,0,0,1,5.3,22.524Z" transform="translate(0 -1.258)"/><path class="e" d="M51.078,10.862V6.742A2.7,2.7,0,0,0,48.425,4H44.45V6.742h3.311a.679.679,0,0,1,.665.686v4.8a2.7,2.7,0,0,0,2.653,2.742,2.7,2.7,0,0,0-2.653,2.742v4.8a.675.675,0,0,1-.665.686H44.45v2.742h3.975A2.7,2.7,0,0,0,51.078,23.2V19.082a2.7,2.7,0,0,1,2.653-2.742V13.6A2.687,2.687,0,0,1,51.078,10.862Z" transform="translate(-13.976 -1.258)"/></g><rect class="f" width="41.125" height="26.731"/></g><g transform="translate(790 32)"><rect class="e" width="40" height="40" rx="4" transform="translate(150 281)"/><text class="g" transform="translate(170 310)"><tspan x="-12.016" y="0">AI</tspan></text></g><g transform="translate(860 313)"><g class="h" transform="translate(0 0)"><g transform="translate(0 0)"><rect class="i" width="40" height="40" transform="translate(0 0)"/><g transform="translate(11.428 10.571)"><path class="j" d="M670.306,795.951m-5.22-.717c-.018,0-2.665,0-2.683,0l-4.556.656a3.313,3.313,0,0,0-2.8,2.819,2.929,2.929,0,0,0-.027.394v6.522a1.114,1.114,0,0,0,1.163,1.054H671.3a1.114,1.114,0,0,0,1.163-1.054V799.1a3,3,0,0,0-.061-.6,3.315,3.315,0,0,0-2.761-2.62Z" transform="translate(-655.022 -777.46)"/><path class="k" d="M725.8,807.884v-6.522a3,3,0,0,0-.061-.6,3.315,3.315,0,0,0-2.761-2.62l-.646-.063a3.8,3.8,0,0,1,2.543,3.981v6.846h.03A1.083,1.083,0,0,0,725.8,807.884Z" transform="translate(-708.352 -779.719)"/><rect class="l" width="10.58" height="3.854" transform="translate(3.335 25.366)"/><path class="k" d="M669.741,821.413v5.634h-.953v-5.634a.476.476,0,0,1,.953,0Zm0,0" transform="translate(-665.929 -797.827)"/><path class="k" d="M720.688,821.413v5.634h-.953v-5.634a.476.476,0,0,1,.953,0Zm0,0" transform="translate(-706.296 -797.827)"/><path class="m" d="M691.71,781.193a1.393,1.393,0,0,1-1.393-1.393v-3.908H693.1V779.8a1.393,1.393,0,0,1-1.393,1.393Zm0,2.478" transform="translate(-682.987 -762.136)"/><path class="n" d="M674.719,717.606a7.854,7.854,0,0,1-.093,1.159q-.03.2-.071.4l-.732,1.9H659.769l-.733-1.9a7.923,7.923,0,0,1,15.525-3.171c.006.032.013.065.019.1a7.737,7.737,0,0,1,.131,1.127q.009.194.007.389Zm0,0" transform="translate(-658.073 -709.651)"/><path class="o" d="M665.1,751.136h0a6.148,6.148,0,0,1-.944-.079.476.476,0,0,0-.082.945,6.788,6.788,0,0,0,1.744.053V751.1a6.371,6.371,0,0,1-.718.034Zm0,0" transform="translate(-661.877 -742.458)"/><path class="o" d="M722,749.407v.956a8.759,8.759,0,0,0,2.644-.925,7.872,7.872,0,0,0,.091-1.075A8.294,8.294,0,0,1,722,749.407Zm0,0" transform="translate(-708.091 -740.323)"/><path class="o" d="M724.258,731.306l-2.468-1.573a.477.477,0,1,1,.512-.8l1.558.993a7.869,7.869,0,0,1,.379,1.285c.006.032.013.065.019.1Zm0,0" transform="translate(-707.75 -724.867)"/><path class="m" d="M718.508,761c0,1.036-1.183,2.564-2.219,2.564S715.1,762.038,715.1,761a1.876,1.876,0,0,1,1.876-1.876c1.036,0,1.532.84,1.532,1.876Z" transform="translate(-702.625 -748.852)"/><path class="m" d="M665.951,761c0,1.036-.152,2.564-1.188,2.564s-2.219-1.528-2.219-2.564.5-1.876,1.532-1.876A1.875,1.875,0,0,1,665.951,761Zm0,0" transform="translate(-660.981 -748.852)"/><path class="p" d="M674.326,751.563c-2.55,0-4.7-.867-5.017-3.4l-.933-7.055h11.9l-.933,7.055c-.316,2.53-2.467,3.4-5.016,3.4Z" transform="translate(-665.603 -734.578)"/><path class="n" d="M664.3,736.775a6.134,6.134,0,0,0,4.928-1s5.268,3.735,10.394.117a.447.447,0,0,0-.015-.742l-3.184-2.03H664.3Zm0,0" transform="translate(-662.375 -728.249)"/><path class="m" d="M688.359,775.728a2.549,2.549,0,0,1-2.058-1.051.476.476,0,0,1,.772-.559,1.586,1.586,0,0,0,2.572,0,.476.476,0,0,1,.771.559,2.548,2.548,0,0,1-2.057,1.051Zm0,0" transform="translate(-679.734 -760.574)"/><g transform="translate(4.3 11.97)"><rect class="q" width="1.76" height="1.056" rx="0.528" transform="translate(8.846 1.054) rotate(177.129)"/><rect class="q" width="1.76" height="1.056" rx="0.528" transform="translate(0.053 0) rotate(2.871)"/></g><g transform="translate(10.648 9.979)"><path class="r" d="M707.028,759.6a.721.721,0,0,1-.72-.7l-.012-.45a.721.721,0,0,1,1.441-.039l.012.45a.721.721,0,0,1-.7.74Zm0,0" transform="translate(-706.296 -757.706)"/><circle class="k" cx="0.208" cy="0.208" r="0.208" transform="translate(0.727 0.946)"/></g><g transform="translate(5.148 9.979)"><path class="r" d="M680.546,759.6a.721.721,0,0,1-.72-.7l-.012-.45a.721.721,0,0,1,1.441-.039l.012.45a.721.721,0,0,1-.7.74Zm0,0" transform="translate(-679.814 -757.706)"/><circle class="k" cx="0.208" cy="0.208" r="0.208" transform="translate(0.727 0.946)"/></g><path class="s" d="M704.507,752.307a1.983,1.983,0,0,1,2.2.031" transform="translate(-694.231 -743.208)"/><path class="s" d="M680.222,752.307a1.983,1.983,0,0,0-2.2.031" transform="translate(-673.248 -743.208)"/></g></g></g><circle class="t" cx="20" cy="20" r="20"/></g><g transform="translate(1020 313)"><g class="u"><rect class="v" width="40" height="40"/><g transform="translate(7.143 6.571)"><g transform="translate(4.645 4.126)"><path class="w" d="M806.889,783.145a1.364,1.364,0,0,1-1.365-1.365v-3.828h2.729v3.828a1.364,1.364,0,0,1-1.364,1.365Zm0,2.021" transform="translate(-798.358 -763.463)"/><path class="x" d="M789.6,714.5a7.628,7.628,0,0,1-.091,1.135q-.03.195-.07.389l-.717,1.857H774.957l-.717-1.857a7.76,7.76,0,0,1,15.206-3.105c.006.032.013.064.019.1a7.517,7.517,0,0,1,.128,1.1c.006.127.008.254.007.381Zm0,0" transform="translate(-773.309 -706.712)"/><path class="y" d="M780.275,748.2h0a6.023,6.023,0,0,1-.924-.077.466.466,0,0,0-.08.926,6.647,6.647,0,0,0,1.708.052v-.934a6.288,6.288,0,0,1-.7.034Zm0,0" transform="translate(-777.134 -739.696)"/><path class="z" d="M837.207,746.446v.936a8.579,8.579,0,0,0,2.59-.906,7.693,7.693,0,0,0,.089-1.053,8.127,8.127,0,0,1-2.678,1.023Zm0,0" transform="translate(-823.597 -737.549)"/><path class="w" d="M833.644,758.024c0,1.014-1.159,2.511-2.174,2.511s-1.164-1.5-1.164-2.511a1.837,1.837,0,0,1,1.837-1.837c1.015,0,1.5.823,1.5,1.837Z" transform="translate(-818.101 -746.124)"/><path class="w" d="M781.086,758.024c0,1.014-.149,2.511-1.163,2.511s-2.174-1.5-2.174-2.511.486-1.837,1.5-1.837a1.837,1.837,0,0,1,1.837,1.837Zm0,0" transform="translate(-776.232 -746.124)"/><path class="z" d="M776.757,746.446a8.127,8.127,0,0,1-2.679-1.023,7.722,7.722,0,0,0,.089,1.053,8.581,8.581,0,0,0,2.59.906v-.936Zm0,0" transform="translate(-773.309 -737.549)"/><path class="aa" d="M789.41,748.816c-2.5,0-4.6-.849-4.913-3.327l-.914-7.317h11.655l-.914,7.317c-.309,2.478-2.416,3.327-4.913,3.327Z" transform="translate(-780.88 -731.773)"/><path class="w" d="M803.993,772.691a2.5,2.5,0,0,1-2.015-1.03.467.467,0,0,1,.756-.547,1.553,1.553,0,0,0,2.519,0,.467.467,0,0,1,.756.547,2.5,2.5,0,0,1-2.015,1.03Zm0,0" transform="translate(-795.463 -757.861)"/><g transform="translate(5.125 10.372)"><g transform="translate(5.386)"><path class="ab" d="M822.691,759.558a.706.706,0,0,1-.705-.687l-.012-.441a.706.706,0,0,1,1.411-.038l.012.441a.706.706,0,0,1-.686.725Zm0,0" transform="translate(-821.974 -757.706)"/><circle class="ac" cx="0.204" cy="0.204" r="0.204" transform="translate(0.712 0.926)"/></g><path class="ab" d="M796.209,759.558a.706.706,0,0,1-.705-.687l-.012-.441a.706.706,0,0,1,1.411-.038l.012.441a.706.706,0,0,1-.686.725Zm0,0" transform="translate(-795.492 -757.706)"/><circle class="ac" cx="0.204" cy="0.204" r="0.204" transform="translate(0.712 0.926)"/></g><path class="x" d="M787.159,732.172l-3.119-1.988H773.612l-3.117,2a.437.437,0,0,0-.015.727,8.2,8.2,0,0,0,6.321,1.407,6.482,6.482,0,0,0,4.064-.007,8.2,8.2,0,0,0,6.309-1.409A.438.438,0,0,0,787.159,732.172Z" transform="translate(-770.293 -725.41)"/><path class="z" d="M777.285,726.175a.467.467,0,0,0-.644-.143l-1.526.973a7.676,7.676,0,0,0-.371,1.258c-.006.032-.013.064-.019.1l2.418-1.54h0A.468.468,0,0,0,777.285,726.175Z" transform="translate(-773.824 -722.045)"/><path class="z" d="M839.4,728.231a7.738,7.738,0,0,0-.371-1.258L837.5,726a.467.467,0,0,0-.5.787l.013.008,2.4,1.532C839.414,728.295,839.407,728.263,839.4,728.231Z" transform="translate(-823.262 -722.019)"/></g><g transform="translate(8.847 16.448)"><rect class="ad" width="1.723" height="1.034" rx="0.517" transform="translate(8.664 1.033) rotate(177.129)"/><rect class="ad" width="1.723" height="1.034" rx="0.517" transform="translate(0.052 0) rotate(2.871)"/></g><g transform="translate(7.287 12.686)"><path class="ae" d="M794.367,752.615a1.712,1.712,0,1,1-1.712-1.712,1.712,1.712,0,0,1,1.712,1.712Zm0,0" transform="translate(-789.385 -750.475)"/><path class="af" d="M794.644,750.9a1.705,1.705,0,0,0-1.2.5l2.42,2.42a1.711,1.711,0,0,0-1.216-2.916Zm0,0" transform="translate(-791.374 -750.475)"/><path class="ae" d="M819.621,752.615a1.712,1.712,0,1,1-1.712-1.712,1.712,1.712,0,0,1,1.712,1.712Zm0,0" transform="translate(-809.502 -750.475)"/><path class="ag" d="M807.871,754.719a.428.428,0,0,1-.428-.428.428.428,0,0,0-.856,0,.428.428,0,1,1-.856,0,1.284,1.284,0,1,1,2.568,0,.428.428,0,0,1-.428.428Zm0,0" transform="translate(-801.165 -752.151)"/><path class="ag" d="M784.852,755.969H783.71a.428.428,0,1,1,0-.856h1.142a.428.428,0,1,1,0,.856Zm0,0" transform="translate(-783.282 -753.829)"/><path class="ag" d="M832.532,755.969h-1.118a.428.428,0,1,1,0-.856h1.118a.428.428,0,1,1,0,.856Zm0,0" transform="translate(-821.284 -753.829)"/><path class="ah" d="M791.035,753.078a2.14,2.14,0,1,1,2.14-2.14,2.143,2.143,0,0,1-2.14,2.14Zm0-3.424a1.284,1.284,0,1,0,1.284,1.284,1.286,1.286,0,0,0-1.284-1.284Zm0,0" transform="translate(-787.753 -748.798)"/><path class="ah" d="M816.29,753.078a2.14,2.14,0,1,1,2.14-2.14,2.142,2.142,0,0,1-2.14,2.14Zm0-3.424a1.284,1.284,0,1,0,1.284,1.284,1.286,1.286,0,0,0-1.284-1.284Zm0,0" transform="translate(-807.872 -748.798)"/></g><path class="ai" d="M860.035,723.5a.506.506,0,0,1-.506-.506v-6.038a.506.506,0,1,1,1.012,0V723a.506.506,0,0,1-.506.506Zm0,0" transform="translate(-836.734 -710.345)"/><path class="ai" d="M772.4,690.242l-10.3-3.531a5.359,5.359,0,0,0-3.461,0l-10.3,3.531a1.311,1.311,0,0,0,0,2.481l5.036,1.727a.522.522,0,0,0,.164.027h.007l14.176-.177a.511.511,0,0,0,.158-.027l4.52-1.55a1.312,1.312,0,0,0,0-2.481Zm0,0" transform="translate(-747.455 -686.424)"/><path class="aj" d="M780.74,709.252c.537-.039,1.112-.063,1.737-.063s1.2.024,1.737.063a16.081,16.081,0,0,1,5.858,1.193v-4.051c0-1.74-3.937-2.532-7.6-2.532s-7.6.792-7.6,2.532v4.051a16.084,16.084,0,0,1,5.859-1.193Zm0,0" transform="translate(-769.303 -700.315)"/><path class="ai" d="M782.477,717.657c-2.2,0-5.837.289-7.6,1.245v1.287c0-.441,2.662-1.519,7.6-1.519s7.6,1.078,7.6,1.519V718.9c-1.757-.956-5.4-1.245-7.6-1.245Zm0,0" transform="translate(-769.303 -711.305)"/><path class="ak" d="M812.212,703.862h0v5.327h0c.625,0,1.2.024,1.737.063a16.083,16.083,0,0,1,5.859,1.193v-4.051c0-1.74-3.937-2.532-7.6-2.532Zm0,0" transform="translate(-799.039 -700.315)"/><path class="aj" d="M812.209,717.657v1.013h0c4.933,0,7.6,1.078,7.6,1.519V718.9c-1.758-.956-5.4-1.245-7.6-1.245Zm0,0" transform="translate(-799.039 -711.305)"/><path class="al" d="M858.54,752.22h-1.012a.507.507,0,0,1-.507-.506v-2.026a1.013,1.013,0,0,1,2.026,0v2.026a.507.507,0,0,1-.507.506Zm0,0" transform="translate(-834.736 -736.014)"/><path class="am" d="M857.021,749.688v2.026a.507.507,0,0,0,.507.506h.506v-3.544a1.012,1.012,0,0,0-1.013,1.013Zm0,0" transform="translate(-834.736 -736.014)"/><g transform="translate(4.582 21.111)"><path class="an" d="M784.952,797.724l-2.672-.5a.289.289,0,0,0-.052,0h-7.4a.291.291,0,0,0-.053,0l-2.7.505a3,3,0,0,0-2.093,2.877v6.388a1.091,1.091,0,0,0,1.139,1.033H785.93a1.091,1.091,0,0,0,1.139-1.033v-6.388a3.006,3.006,0,0,0-2.117-2.883Zm0,0" transform="translate(-769.983 -795.796)"/><path class="ao" d="M807.961,818.066l-.53-8.007a.285.285,0,0,0-.281-.238h-1.139a.285.285,0,0,0-.281.238l-.53,8.007Zm0,0" transform="translate(-798.038 -805.834)"/><path class="ap" d="M808.655,801.733a.285.285,0,0,0-.285-.284h-1.424a.284.284,0,0,0-.255.157l-.285.569a.283.283,0,0,0-.03.129l0,.563a.855.855,0,0,0,.854.854h.57a.855.855,0,0,0,.854-.855Zm0,0" transform="translate(-798.975 -799.165)"/><path class="aq" d="M796.76,791.685l-2.561-1.43a.284.284,0,0,0-.366.077l-1.075,1.424a.285.285,0,0,0-.009.331l1.736,2.563a.568.568,0,0,0,.417.247l.055,0a.568.568,0,0,0,.4-.166.266.266,0,0,0,.021-.023l1.18-1.465a.263.263,0,0,0,.033-.051l.283-.564a.283.283,0,0,0,.03-.128v-.569a.285.285,0,0,0-.146-.249Zm0,0" transform="translate(-788.08 -790.219)"/><path class="aq" d="M810.724,791.685l2.561-1.43a.284.284,0,0,1,.366.077l1.075,1.424a.284.284,0,0,1,.009.331L813,794.65a.568.568,0,0,1-.417.247l-.055,0a.568.568,0,0,1-.4-.166l-.021-.023-1.18-1.465a.258.258,0,0,1-.033-.051l-.283-.564a.28.28,0,0,1-.03-.128v-.569a.285.285,0,0,1,.146-.249Zm0,0" transform="translate(-802.321 -790.219)"/><path class="aq" d="M772.831,806a2.279,2.279,0,0,0-.667-1.611l-1.264-1.265a3.16,3.16,0,0,0-.916,2.186V811.7a1.091,1.091,0,0,0,1.139,1.033h1.709V806Zm0,0" transform="translate(-769.983 -800.499)"/><path class="aq" d="M841.92,803.136l-1.262,1.262a2.279,2.279,0,0,0-.667,1.611v6.732H841.7a1.091,1.091,0,0,0,1.139-1.033V805.32a3.146,3.146,0,0,0-.918-2.183Zm0,0" transform="translate(-825.752 -800.509)"/></g></g></g><path class="ar" d="M20,0A20,20,0,1,1,0,20,20,20,0,0,1,20,0Z"/></g></g></svg>